<svg width="926" height="720" viewBox="0 0 926 720" fill="none" xmlns="http://www.w3.org/2000/svg">
<path d="M426.25 661.969C426.25 683.247 442.337 700.656 462 700.656C481.663 700.656 497.75 683.247 497.75 661.969H426.25Z" fill="#616466"/>
<path d="M398.544 565.25H524.562C531.712 523.661 555.844 483.039 580.869 440.483C610.362 391.156 640.75 339.895 640.75 290.569C640.75 196.752 560.312 120.344 462 120.344C363.688 120.344 283.25 196.752 283.25 290.569C283.25 339.895 313.638 391.156 342.238 440.483C367.263 483.039 391.394 523.661 398.544 565.25Z" fill="#FFCE31"/>
<path d="M411.95 425.975C412.844 431.778 414.631 437.581 415.525 443.384C418.206 454.024 419.994 463.695 422.675 474.334C430.719 511.088 437.869 542.038 444.125 566.217H449.488C445.019 542.038 438.763 510.12 430.719 473.367C428.931 463.695 426.25 453.056 424.463 442.417C423.569 437.581 422.675 431.778 420.888 426.942C428.038 425.008 445.019 419.205 462 398.894C478.981 419.205 495.963 425.008 503.113 426.942C502.219 432.745 501.325 437.581 499.538 442.417C497.75 453.056 495.069 463.695 493.281 473.367C485.238 510.12 478.981 542.038 474.513 566.217H479.875C485.238 542.038 493.281 511.088 501.325 474.334C503.113 464.663 505.794 454.024 508.475 443.384C509.369 437.581 511.156 431.778 512.05 425.975C519.2 425.008 525.456 423.073 529.925 418.238C535.288 412.434 537.969 405.664 536.181 397.927C535.288 394.058 533.5 389.222 528.138 388.255C525.456 387.288 523.669 387.288 520.988 388.255C518.306 389.222 516.519 391.156 515.625 392.123C511.156 397.927 509.369 403.73 507.581 409.533L504.9 418.238C504.9 418.238 497.75 419.205 480.769 406.631C471.831 399.861 469.15 395.025 466.469 392.123C469.15 388.255 471.831 385.353 474.513 380.517C475.406 377.616 476.3 375.681 477.194 371.813C477.194 368.911 477.194 365.042 475.406 362.141C473.619 359.239 471.831 356.338 467.363 354.403C465.575 353.436 463.788 353.436 462 353.436C460.213 353.436 458.425 353.436 456.638 354.403C453.063 356.338 450.381 359.239 448.594 362.141C446.806 365.042 446.806 368.911 446.806 371.813C446.806 374.714 447.7 377.616 449.488 380.517C451.275 385.353 453.956 389.222 457.531 392.123C454.85 395.025 452.169 399.861 443.231 406.631C427.144 418.238 419.1 418.238 419.1 418.238L416.419 409.533C414.631 403.73 412.844 397.927 408.375 392.123C407.481 391.156 405.694 389.222 403.013 388.255C400.331 387.288 397.65 387.288 395.863 388.255C390.5 390.189 388.713 395.025 387.819 397.927C386.925 405.664 389.606 412.434 394.075 418.238C399.438 423.073 405.694 425.008 411.95 425.975ZM515.625 411.467C517.413 406.631 519.2 400.828 522.775 397.927C523.669 396.959 524.563 396.959 524.563 396.959H526.35C527.244 396.959 528.138 397.927 529.031 400.828C529.925 404.697 528.138 410.5 524.563 413.402C521.881 415.336 518.306 417.27 514.731 418.238C514.731 415.336 514.731 413.402 515.625 411.467ZM456.638 365.042C458.425 363.108 460.213 361.173 462 361.173C463.788 361.173 465.575 362.141 467.363 365.042C469.15 367.944 468.256 371.813 466.469 375.681C465.575 378.583 463.788 381.484 462 383.419C460.213 380.517 458.425 378.583 457.531 375.681C455.744 372.78 454.85 368.911 456.638 365.042ZM395.863 398.894C395.863 396.959 396.756 395.992 398.544 395.025H400.331C400.331 395.025 401.225 395.992 402.119 395.992C404.8 398.894 407.481 404.697 409.269 409.533C410.163 411.467 410.163 413.402 411.056 415.336C407.481 414.369 403.906 413.402 401.225 410.5C397.65 408.566 395.863 403.73 395.863 398.894Z" fill="#BC262C"/>
<path d="M398.544 584.594H526.35V602.003H398.544V584.594Z" fill="#94989B"/>
<path d="M407.481 619.413H517.413V636.822H407.481V619.413Z" fill="#94989B"/>
<path d="M407.481 602.003H517.413V619.412H407.481V602.003Z" fill="#616466"/>
<path d="M526.35 584.594L407.481 619.412V637.789L526.35 602.003V584.594Z" fill="#94989B"/>
<path d="M416.419 655.198H508.475V672.608H416.419V655.198Z" fill="#94989B"/>
<path d="M416.419 637.789H508.475V655.198H416.419V637.789Z" fill="#616466"/>
<path d="M517.413 619.413L416.419 655.198V673.575L517.413 637.789V619.413Z" fill="#94989B"/>
<path d="M277.928 162C277.928 166.875 276.371 171.188 273.257 174.938L89.6842 396L273.257 617.062C276.371 620.812 277.928 625.125 277.928 630C277.928 634.875 276.371 639.188 273.257 642.938L249.901 671.062C246.787 674.812 243.206 676.688 239.158 676.688C235.11 676.688 231.529 674.812 228.414 671.062L10.7434 408.938C7.62937 405.188 6.07236 400.875 6.07236 396C6.07236 391.125 7.62937 386.812 10.7434 383.062L228.414 120.938C231.529 117.188 235.11 115.312 239.158 115.312C243.206 115.312 246.787 117.188 249.901 120.938L273.257 149.062C276.371 152.812 277.928 157.125 277.928 162Z" fill="#28A79F"/>
<path d="M648.072 162C648.072 166.875 649.629 171.188 652.743 174.938L836.316 396L652.743 617.062C649.629 620.812 648.072 625.125 648.072 630C648.072 634.875 649.629 639.188 652.743 642.938L676.099 671.062C679.213 674.812 682.794 676.688 686.842 676.688C690.89 676.688 694.471 674.812 697.586 671.062L915.257 408.938C918.371 405.188 919.928 400.875 919.928 396C919.928 391.125 918.371 386.812 915.257 383.062L697.586 120.938C694.471 117.188 690.89 115.312 686.842 115.312C682.794 115.312 679.213 117.188 676.099 120.938L652.743 149.062C649.629 152.812 648.072 157.125 648.072 162Z" fill="#28A79F"/>
</svg>

